<svg width="1200" height="742" viewBox="0 0 1200 742" fill="none" xmlns="http://www.w3.org/2000/svg">
<path d="M530.237 253H498.346C496.695 253 495.356 254.337 495.356 255.987V486.013C495.356 487.663 496.695 489 498.346 489H530.237C531.889 489 533.227 487.662 533.227 486.013V255.987C533.227 254.337 531.889 253 530.237 253Z" fill="white"/>
<path d="M340.881 253H308.99C307.339 253 306 254.337 306 255.987V486.013C306 487.663 307.339 489 308.99 489H340.881C342.533 489 343.871 487.663 343.871 486.013V255.987C343.871 254.337 342.533 253 340.881 253Z" fill="white"/>
<path d="M674.237 313.743C672.586 313.743 671.247 315.08 671.247 316.73V404.731C671.247 418.792 670.733 452.257 637.871 452.257H631.892C598.046 452.257 598.88 418.776 598.88 404.731V316.73C598.88 315.08 597.542 313.743 595.891 313.743H563.125C561.474 313.743 560.136 315.08 560.136 316.73V402.24C560.136 427.544 564.122 489 629.898 489H639.864C705.641 489 709.627 427.412 709.627 402.109V316.73C709.627 315.08 708.289 313.743 706.637 313.743H674.237Z" fill="white"/>
<path d="M348.17 395.073C347.155 393.857 347.266 392.062 348.422 390.979L429.994 314.616C430.549 314.097 431.279 313.808 432.039 313.808H471.017C473.705 313.808 475.028 317.077 473.094 318.944L397.24 392.181C396.119 393.263 396.018 395.025 397.009 396.228L469.406 484.114C471.011 486.063 469.624 489 467.097 489H425.16C424.246 489 423.382 488.582 422.815 487.867L369.944 421.123C369.94 421.118 369.933 421.118 369.928 421.122C369.924 421.127 369.916 421.126 369.913 421.121L348.17 395.073Z" fill="white"/>
<path d="M731.616 401.173C731.616 389.422 733.217 378.255 737.239 367.567C741.262 356.878 747.31 347.155 755.02 338.984C762.729 330.814 771.939 324.366 782.093 320.029C792.248 315.693 803.135 313.559 814.099 313.755C862.581 313.755 894 351.048 894 405.708V412.37C894 414.02 892.661 415.357 891.01 415.357H778.976C777.169 415.357 775.768 416.949 776.087 418.726C777.837 428.487 781.479 436.257 789.148 442.724C797.679 449.919 809.823 453.084 821.465 453.084C836.14 452.875 850.325 448.547 861.903 439.286C863.138 438.298 864.93 438.352 866.044 439.474L885.757 459.336C886.98 460.568 886.899 462.581 885.563 463.689C859.268 485.506 840.183 489 816.916 488.854C804.305 489 794.429 487.767 783.889 483.629C773.349 479.491 763.752 473.086 755.717 464.826C747.682 456.567 741.386 446.636 737.235 435.673C733.084 424.71 731.616 413.321 731.616 401.173ZM814.099 348.721C814.099 348.713 814.092 348.705 814.083 348.705C804.245 348.411 794.675 352.091 787.353 358.983C780.808 365.145 776.507 371.863 775.118 380.562C774.844 382.278 776.229 383.759 777.967 383.759H850.184C851.882 383.759 853.262 382.344 853.025 380.665C852.536 377.21 851.458 374.542 849.822 370.894C847.732 366.233 844.775 362.056 841.124 358.609C837.473 355.161 833.202 352.512 828.562 350.817C823.926 349.125 819.015 348.417 814.116 348.737C814.107 348.738 814.099 348.731 814.099 348.721Z" fill="white"/>
</svg>
