<svg width="48" height="48" viewBox="0 0 48 48" fill="none" xmlns="http://www.w3.org/2000/svg">
<rect width="48" height="48" fill="#1F1F1F"/>
<path d="M18.8969 9.61626H15.7351C15.3291 9.61626 15 9.9454 15 10.3514V37.6486C15 38.0546 15.3291 38.3837 15.7351 38.3837H18.8969C19.3029 38.3837 19.6321 38.0546 19.6321 37.6486V10.3514C19.6321 9.9454 19.3029 9.61626 18.8969 9.61626Z" fill="white"/>
<path d="M20.3815 27.1537C20.132 26.8546 20.1591 26.4127 20.4434 26.1464L30.0595 17.1368C30.1958 17.0092 30.3755 16.9381 30.5622 16.9381H34.2695C34.9306 16.9381 35.2557 17.7426 34.7804 18.2019L26.4052 26.2949C26.1295 26.5612 26.1048 26.9947 26.3484 27.2907L34.4892 37.1815C34.884 37.6611 34.5428 38.3838 33.9216 38.3838H29.7535C29.5288 38.3838 29.3165 38.2811 29.1771 38.1049L22.8213 30.0748C22.8208 30.0742 22.8199 30.0742 22.8193 30.0747V30.0747C22.8188 30.0752 22.8179 30.0752 22.8174 30.0746L20.3815 27.1537Z" fill="white"/>
</svg>
